<svg id="Layer_1" data-name="Layer 1" xmlns="http://www.w3.org/2000/svg" width="24" height="24" viewBox="0 0 24 24">
  <defs>
    <style>
      .cls-1 {
        fill: none;
      }

      .cls-2 {
        fill: #03dac5;
      }
    </style>
  </defs>
  <title>scanner-wrie-hv</title>
  <path class="cls-1" d="M0,0H24V24H0Z"/>
  <path class="cls-2" d="M8,11.5A1.5,1.5,0,1,0,6.5,13,1.5,1.5,0,0,0,8,11.5Zm7-5A1.5,1.5,0,0,0,13.5,5h-3a1.5,1.5,0,0,0,0,3h3A1.5,1.5,0,0,0,15,6.5ZM8.5,15A1.5,1.5,0,1,0,10,16.5,1.5,1.5,0,0,0,8.5,15ZM12,1A11,11,0,1,0,23,12,11.007,11.007,0,0,0,12,1Zm0,20a9,9,0,1,1,9-9A9.014,9.014,0,0,1,12,21Zm5.5-11A1.5,1.5,0,1,0,19,11.5,1.5,1.5,0,0,0,17.5,10Zm-2,5A1.5,1.5,0,1,0,17,16.5,1.5,1.5,0,0,0,15.5,15Z"/>
</svg>
