<svg id="Layer_1" data-name="Layer 1" xmlns="http://www.w3.org/2000/svg" width="24" height="24" viewBox="0 0 24 24">
  <defs>
    <style>
      .cls-1 {
        fill: none;
      }

      .cls-2 {
        fill: #bb86fc;
      }
    </style>
  </defs>
  <title>others-hv-lec</title>
  <path class="cls-1" d="M0,0H24V24H0Z" transform="translate(0 0)"/>
  <path class="cls-2" d="M22.7,19,13.6,9.9A6.44,6.44,0,0,0,12.1,3,6.6,6.6,0,0,0,4.7,1.7L9,6,6,9,1.6,4.7a6.43,6.43,0,0,0,1.3,7.4,6.44,6.44,0,0,0,6.9,1.5l9.1,9.1a1,1,0,0,0,1.4,0l2.3-2.3a.9.9,0,0,0,.23-1.25A.64.64,0,0,0,22.7,19Z" transform="translate(0 0)"/>
</svg>
