<svg id="Capa_1" data-name="Capa 1" xmlns="http://www.w3.org/2000/svg" width="511.999" height="511.941" viewBox="0 0 511.999 511.941">
  <defs>
    <style>
      .cls-1 {
        fill: #55586b;
      }
    </style>
  </defs>
  <title>hailer</title>
  <g>
    <path class="cls-1" d="M315.983,91.038a14.992,14.992,0,0,0,15-15V15.031a15,15,0,0,0-30,0V76.037A14.992,14.992,0,0,0,315.983,91.038Z" transform="translate(-0.001 -0.03)"/>
    <path class="cls-1" d="M369.279,119.457a15.012,15.012,0,0,0,20.128-6.709l20.7-41.386,15.28,15.279a14.866,14.866,0,0,0,13.009,4.2,15.028,15.028,0,0,0,11.017-8.1l31-61A15,15,0,1,0,453.577,8.32l-21.7,42.386L416.6,35.427a15,15,0,0,0-24.026,3.9l-30,60.006a15,15,0,0,0,6.71,20.127Z" transform="translate(-0.001 -0.03)"/>
    <path class="cls-1" d="M447.552,126.475a15.043,15.043,0,0,0-10.854-5.421,15.293,15.293,0,0,0-11.31,4.381l-30,30A15,15,0,1,0,416.6,176.65l18.355-18.355,19.484,23.527a15.014,15.014,0,0,0,23.117,0l31-37.215a15,15,0,0,0-23.117-19.132L466,148.743Z" transform="translate(-0.001 -0.03)"/>
    <path class="cls-1" d="M43.144,446.237a74.942,74.942,0,0,0,106.064,0l31.832-31.82L53.75,287.128,21.931,318.946a75.1,75.1,0,0,0,0,106.079Z" transform="translate(-0.001 -0.03)"/>
    <path class="cls-1" d="M364.666,299.036,169.128,103.5c-18.192,60.245-51.174,116.388-94.437,162.147L202.524,393.477C248.285,350.2,304.443,317.216,364.666,299.036Z" transform="translate(-0.001 -0.03)"/>
    <path class="cls-1" d="M440.257,279.462a14.991,14.991,0,0,0,6.972-25.154L213.859,20.938a14.991,14.991,0,0,0-25.153,6.972L178.158,70.1,398.063,290.007Z" transform="translate(-0.001 -0.03)"/>
    <path class="cls-1" d="M215.454,422.432l-45.033,45.019a105.282,105.282,0,0,1-11.632,9.574l30.558,30.552a15,15,0,0,0,21.213,0l42.426-42.426a15,15,0,0,0,0-21.213L224.01,414.963c-2.765,2.6-5.867,4.779-8.556,7.469Z" transform="translate(-0.001 -0.03)"/>
  </g>
</svg>
