<svg id="Layer_1" data-name="Layer 1" xmlns="http://www.w3.org/2000/svg" width="512.001" height="221.867" viewBox="0 0 512.001 221.867">
  <defs>
    <style>
      .cls-1 {
        fill: #03dac5;
      }
    </style>
  </defs>
  <title>vga-hv</title>
  <g>
    <path class="cls-1" d="M59.733,238.933A17.067,17.067,0,1,0,76.8,256,17.084,17.084,0,0,0,59.733,238.933Z" transform="translate(0 -145.066)"/>
    <path class="cls-1" d="M452.267,238.933A17.067,17.067,0,1,0,469.334,256,17.084,17.084,0,0,0,452.267,238.933Z" transform="translate(0 -145.066)"/>
    <path class="cls-1" d="M344.7,213.333H167.3a10.243,10.243,0,0,0-7.851,3.644,10.1,10.1,0,0,0-2.3,8.346l10.786,64.734a10.271,10.271,0,0,0,10.163,8.61H333.909a10.272,10.272,0,0,0,10.163-8.619l10.786-64.717a10.106,10.106,0,0,0-2.3-8.354A10.239,10.239,0,0,0,344.7,213.333ZM187.733,247.467a8.533,8.533,0,1,1,8.533-8.533A8.536,8.536,0,0,1,187.733,247.467ZM204.8,281.6a8.533,8.533,0,1,1,8.533-8.533A8.536,8.536,0,0,1,204.8,281.6Zm17.067-34.133a8.533,8.533,0,1,1,8.533-8.533A8.536,8.536,0,0,1,221.867,247.467ZM238.933,281.6a8.533,8.533,0,1,1,8.533-8.533A8.536,8.536,0,0,1,238.933,281.6ZM256,247.467a8.534,8.534,0,1,1,8.533-8.534A8.536,8.536,0,0,1,256,247.467ZM273.067,281.6a8.533,8.533,0,1,1,8.533-8.533A8.536,8.536,0,0,1,273.067,281.6Zm17.066-34.133a8.533,8.533,0,1,1,8.533-8.533A8.536,8.536,0,0,1,290.133,247.467ZM307.2,281.6a8.533,8.533,0,1,1,8.533-8.533A8.536,8.536,0,0,1,307.2,281.6Zm17.067-34.133a8.533,8.533,0,1,1,8.533-8.533A8.536,8.536,0,0,1,324.267,247.467Z" transform="translate(0 -145.066)"/>
    <path class="cls-1" d="M486.4,187.733H409.6v-25.6a17.084,17.084,0,0,0-17.067-17.067H119.467A17.084,17.084,0,0,0,102.4,162.133v25.6H25.6A25.631,25.631,0,0,0,0,213.333v85.333a25.631,25.631,0,0,0,25.6,25.6h76.8v25.6a17.084,17.084,0,0,0,17.067,17.067H392.534A17.084,17.084,0,0,0,409.6,349.866v-25.6h76.8a25.631,25.631,0,0,0,25.6-25.6V213.333A25.633,25.633,0,0,0,486.4,187.733ZM59.733,290.133A34.133,34.133,0,1,1,93.867,256,34.167,34.167,0,0,1,59.733,290.133ZM371.7,228.139l-10.786,64.717a27.288,27.288,0,0,1-27,22.878H178.091a27.289,27.289,0,0,1-27-22.869l-10.786-64.734A27.371,27.371,0,0,1,167.3,196.268H344.7A27.373,27.373,0,0,1,371.7,228.139Zm80.572,61.994A34.133,34.133,0,1,1,486.4,256,34.167,34.167,0,0,1,452.267,290.133Z" transform="translate(0 -145.066)"/>
  </g>
</svg>
