<svg id="Layer_1" data-name="Layer 1" xmlns="http://www.w3.org/2000/svg" width="24" height="24" viewBox="0 0 24 24">
  <defs>
    <style>
      .cls-1 {
        fill: #03dac5;
      }

      .cls-2 {
        fill: none;
      }
    </style>
  </defs>
  <title>radio-hv</title>
  <path class="cls-1" d="M3.24,6.15A1.982,1.982,0,0,0,2,8V20a2,2,0,0,0,2,2H20a2,2,0,0,0,2-2V8a1.993,1.993,0,0,0-2-2H8.3l8.26-3.34L15.88,1ZM7,20a3,3,0,1,1,3-3A3,3,0,0,1,7,20Zm13-8H18V10H16v2H4V8H20Z"/>
  <path class="cls-2" d="M0,0H24V24H0Z"/>
</svg>
