<svg id="Layer_1" data-name="Layer 1" xmlns="http://www.w3.org/2000/svg" width="406.505" height="118.459" viewBox="0 0 406.505 118.459">
  <defs>
    <style>
      .cls-1 {
        fill: #55586b;
      }

      .cls-2 {
        fill: #fff;
      }
    </style>
  </defs>
  <title>extension</title>
  <path class="cls-1" d="M68.67,269.3l355.755,1.161a25.467,25.467,0,0,1,25.339,25.311l.292,66.84a25,25,0,0,1-25.118,25.147L69.183,386.6a26.082,26.082,0,0,1-25.339-25.311l-.293-66.84A25,25,0,0,1,68.67,269.3Z" transform="translate(-43.551 -269.302)"/>
  <path class="cls-2" d="M135.687,307.759a4.633,4.633,0,0,0,4.592,4.667l19.643.159a4.633,4.633,0,0,0,4.668-4.592L164.8,281.8a4.629,4.629,0,0,0-4.592-4.667l-19.643-.159a4.628,4.628,0,0,0-4.667,4.592Z" transform="translate(-43.551 -269.302)"/>
  <path class="cls-2" d="M56.7,352.209l22.819.1-.189,16.14-22.821-.1Z" transform="translate(-43.551 -269.302)"/>
  <path class="cls-2" d="M107.614,352.209l22.819.1-.189,16.14-22.822-.1Z" transform="translate(-43.551 -269.302)"/>
  <path class="cls-2" d="M84.857,329.146l.1-22.819,16.14.188-.1,22.822Z" transform="translate(-43.551 -269.302)"/>
  <path class="cls-2" d="M272.132,307.759a4.633,4.633,0,0,0,4.592,4.667l19.643.159a4.633,4.633,0,0,0,4.667-4.592l.213-26.191a4.63,4.63,0,0,0-4.592-4.667l-19.644-.159a4.629,4.629,0,0,0-4.667,4.592Z" transform="translate(-43.551 -269.302)"/>
  <path class="cls-2" d="M193.149,352.209l22.819.1-.189,16.14-22.822-.1Z" transform="translate(-43.551 -269.302)"/>
  <path class="cls-2" d="M244.058,352.209l22.819.1-.189,16.14-22.822-.1Z" transform="translate(-43.551 -269.302)"/>
  <path class="cls-2" d="M221.3,329.146l.1-22.819,16.139.188-.1,22.822Z" transform="translate(-43.551 -269.302)"/>
  <path class="cls-2" d="M409.021,307.759a4.633,4.633,0,0,0,4.592,4.667l19.643.159a4.633,4.633,0,0,0,4.667-4.592l.212-26.191a4.629,4.629,0,0,0-4.591-4.667l-19.644-.159a4.629,4.629,0,0,0-4.667,4.592Z" transform="translate(-43.551 -269.302)"/>
  <path class="cls-2" d="M330.038,352.209l22.819.1-.189,16.14-22.822-.1Z" transform="translate(-43.551 -269.302)"/>
  <path class="cls-2" d="M380.947,352.209l22.819.1-.189,16.14-22.822-.1Z" transform="translate(-43.551 -269.302)"/>
  <path class="cls-2" d="M358.19,329.146l.1-22.819,16.139.188-.1,22.822Z" transform="translate(-43.551 -269.302)"/>
</svg>
