<svg id="Layer_1" data-name="Layer 1" xmlns="http://www.w3.org/2000/svg" width="496.01" height="279" viewBox="0 0 496.01 279">
  <defs>
    <style>
      .cls-1 {
        fill: #55586b;
      }
    </style>
  </defs>
  <title>table</title>
  <path class="cls-1" d="M504,160V129a8,8,0,0,0-8-8H16a8,8,0,0,0-8,8v31a8,8,0,0,0,8,8H69.49L8.29,389.87a8,8,0,0,0,5.56,9.84A8.19,8.19,0,0,0,16,400H40a8,8,0,0,0,7.64-5.63L117.89,168H394.11l70.25,226.37A8,8,0,0,0,472,400h24a8,8,0,0,0,8-8,7.85,7.85,0,0,0-.29-2.15L442.51,168H496a8,8,0,0,0,8-8Z" transform="translate(-8 -121)"/>
</svg>
