<svg id="Layer_1" data-name="Layer 1" xmlns="http://www.w3.org/2000/svg" width="512" height="495" viewBox="0 0 512 495">
  <defs>
    <style>
      .cls-1 {
        fill: #03dac5;
      }
    </style>
  </defs>
  <title>wire-hv</title>
  <path class="cls-1" d="M512,379.016l-31-52.5V263H451V219.422C451,137.7,386.188,69.9,304.484,68.039,220.2,66.117,151,134.137,151,218v15A105.127,105.127,0,0,0,256,338a103.9,103.9,0,0,0,43.594-9.77C277.621,352.473,246.219,368,211,368A120.136,120.136,0,0,1,91,248h30V184.484l30-52.5V68H121V8H91V68H61V8H31V68H0v63.984l31,52.5V248H61c0,83.863,69.195,151.883,153.484,149.961C296.188,396.1,361,328.3,361,246.578V233A105.127,105.127,0,0,0,256,128a103.9,103.9,0,0,0-43.594,9.77C234.379,113.527,265.781,98,301,98A120.136,120.136,0,0,1,421,218v45H391v63.516l-30,52.5V443h30v60h30V443h30v60h30V443h31ZM331,232.5a75,75,0,1,1-75-75A75.089,75.089,0,0,1,331,232.5Z" transform="translate(0 -8)"/>
</svg>
