<svg id="Layer_1" data-name="Layer 1" xmlns="http://www.w3.org/2000/svg" width="24" height="24" viewBox="0 0 24 24">
  <defs>
    <style>
      .cls-1 {
        fill: none;
      }

      .cls-2 {
        fill: #03dac5;
      }
    </style>
  </defs>
  <title>receiver-hv</title>
  <path class="cls-1" d="M0,0H24V24H0Z"/>
  <path class="cls-2" d="M20.2,5.9l.8-.8a7,7,0,0,0-10,0l.8.8A6.254,6.254,0,0,1,16,4.2,6.254,6.254,0,0,1,20.2,5.9Zm-.9.8a4.589,4.589,0,0,0-6.6,0l.8.8a3.625,3.625,0,0,1,5,0ZM19,13H17V9H15v4H5a2.006,2.006,0,0,0-2,2v4a2.006,2.006,0,0,0,2,2H19a2.006,2.006,0,0,0,2-2V15A2.006,2.006,0,0,0,19,13ZM8,18H6V16H8Zm3.5,0h-2V16h2ZM15,18H13V16h2Z"/>
</svg>
