<svg id="Layer_1" data-name="Layer 1" xmlns="http://www.w3.org/2000/svg" width="378.897" height="378.894" viewBox="0 0 378.897 378.894">
  <defs>
    <style>
      .cls-1 {
        fill: #55586b;
      }

      .cls-2 {
        fill: #03dac5;
      }
    </style>
  </defs>
  <title>wireless-mic</title>
  <g>
    <circle class="cls-1" cx="273.959" cy="104.938" r="104.938"/>
    <g>
      <path class="cls-1" d="M101.368,418.894a14.774,14.774,0,0,1,12.821-4.163,39.344,39.344,0,0,0,30.629-7.812L290.476,293.255a14.865,14.865,0,0,0-2.4-24.948,140.052,140.052,0,0,1-59.954-59.957,14.865,14.865,0,0,0-24.948-2.405L89.5,351.606a39.335,39.335,0,0,0-7.812,30.63,14.772,14.772,0,0,1-4.162,12.82" transform="translate(-77.529 -40)"/>
      <path class="cls-2" d="M100.4,419.861" transform="translate(-77.529 -40)"/>
    </g>
  </g>
</svg>
