<svg id="Layer_1" data-name="Layer 1" xmlns="http://www.w3.org/2000/svg" width="402.436" height="512.004" viewBox="0 0 402.436 512.004">
  <defs>
    <style>
      .cls-1 {
        fill: #03dac5;
      }
    </style>
  </defs>
  <title>wired-mic-hv</title>
  <circle class="cls-1" cx="297.499" cy="104.938" r="104.938"/>
  <path class="cls-1" d="M169.719,385.123A51.818,51.818,0,0,0,132.837,400.4l-12.87,12.869a18.449,18.449,0,1,1-26.091-26.09L108.1,372.955a39.4,39.4,0,0,0,37.512-6.036L311.454,237.5a139.2,139.2,0,0,1-91.74-91.743L90.3,311.606a39.4,39.4,0,0,0-6.036,37.512L70.036,363.343A52.162,52.162,0,0,0,143.8,437.111l12.87-12.869a18.448,18.448,0,0,1,26.09,26.09L144.93,488.165,168.769,512,206.6,474.17a52.164,52.164,0,0,0-36.884-89.047Z" transform="translate(-54.782)"/>
</svg>
