<svg id="Layer_1" data-name="Layer 1" xmlns="http://www.w3.org/2000/svg" width="278.921" height="178" viewBox="0 0 278.921 178">
  <defs>
    <style>
      .cls-1 {
        fill: none;
      }

      .cls-2 {
        fill: #55586b;
      }
    </style>
  </defs>
  <title>xlr-3-pin</title>
  <path class="cls-1" d="M0,0H24V24H0Z" transform="translate(254.921 99.444)"/>
  <path class="cls-2" d="M-153.027-39.734a12.166,12.166,0,0,0-12.228-12.137,12.166,12.166,0,0,0-12.227,12.137A12.166,12.166,0,0,0-165.255-27.6,12.166,12.166,0,0,0-153.027-39.734Zm-39.7,39.188A12.166,12.166,0,0,0-204.954,11.59a12.166,12.166,0,0,0,12.228,12.137A12.166,12.166,0,0,0-180.5,11.59,12.166,12.166,0,0,0-192.726-.546Zm27.471-98.9c-49.479,0-89.666,39.888-89.666,89s40.187,89,89.666,89,89.667-39.889,89.667-89S-115.775-99.444-165.255-99.444Zm0,161.818c-40.431,0-73.363-32.688-73.363-72.818s32.932-72.819,73.363-72.819,73.364,32.688,73.364,72.819S-124.823,62.374-165.255,62.374Zm26.284-62.92A12.166,12.166,0,0,0-151.2,11.59a12.166,12.166,0,0,0,12.228,12.137A12.166,12.166,0,0,0-126.744,11.59,12.166,12.166,0,0,0-138.971-.546Z" transform="translate(254.921 99.444)"/>
</svg>
