<svg id="Layer_1" data-name="Layer 1" xmlns="http://www.w3.org/2000/svg" width="395.455" height="132.291" viewBox="0 0 395.455 132.291">
  <defs>
    <style>
      .cls-1 {
        fill: #55586b;
      }
    </style>
  </defs>
  <title>extension-wire</title>
  <path class="cls-1" d="M370.21,240.462a6.025,6.025,0,0,0,6,6.04l25.548.08a6.025,6.025,0,0,0,6.04-6l.107-34.064a6.019,6.019,0,0,0-6-6.04l-25.548-.08a6.019,6.019,0,0,0-6.04,6ZM395.846,212.5l-.069,22.022-13.506-.042.069-22.022Z" transform="translate(-37.989 -173.892)"/>
  <path class="cls-1" d="M433.421,217.608l.023-7.485a35.1,35.1,0,0,0-34.984-35.206L73.388,173.892a35.1,35.1,0,0,0-35.206,34.985l-.193,61.076a35.1,35.1,0,0,0,34.985,35.205l325.072,1.025A35.1,35.1,0,0,0,433.252,271.2l.023-7.485m.038-12.042.07-22.022M73.35,185.934l325.072,1.025a23.058,23.058,0,0,1,22.98,23.126l-.193,61.076a23.057,23.057,0,0,1-23.125,22.98L73.012,293.116a23.611,23.611,0,0,1-22.98-23.125l.192-61.076A23.058,23.058,0,0,1,73.35,185.934Z" transform="translate(-37.989 -173.892)"/>
  <path class="cls-1" d="M342.107,259.9l17.028.054L359.1,272l-17.032-.053Z" transform="translate(-37.989 -173.892)"/>
  <path class="cls-1" d="M308.043,259.8l17.028.054-.036,12.044-17.03-.056Z" transform="translate(-37.989 -173.892)"/>
  <path class="cls-1" d="M327.712,214.782l12.042.038-.051,17.03-12.046-.038Z" transform="translate(-37.989 -173.892)"/>
  <path class="cls-1" d="M250.986,240.086a6.025,6.025,0,0,0,6,6.04l25.548.081a6.026,6.026,0,0,0,6.04-6l.107-34.064a6.019,6.019,0,0,0-6-6.04l-25.548-.08a6.019,6.019,0,0,0-6.04,6Zm25.636-27.962-.069,22.021-13.506-.042.069-22.022Z" transform="translate(-37.989 -173.892)"/>
  <path class="cls-1" d="M222.883,259.527l17.028.053-.036,12.044-17.032-.053Z" transform="translate(-37.989 -173.892)"/>
  <path class="cls-1" d="M188.819,259.419l17.028.054-.036,12.044-17.03-.056Z" transform="translate(-37.989 -173.892)"/>
  <path class="cls-1" d="M208.488,214.406l12.042.038-.051,17.03-12.044-.04Z" transform="translate(-37.989 -173.892)"/>
  <path class="cls-1" d="M131.762,239.71a6.023,6.023,0,0,0,6,6.04l25.548.081a6.026,6.026,0,0,0,6.04-6l.107-34.064a6.02,6.02,0,0,0-6-6.041l-25.548-.08a6.019,6.019,0,0,0-6.04,6ZM157.4,211.748l-.069,22.021-13.506-.042.069-22.022Z" transform="translate(-37.989 -173.892)"/>
  <path class="cls-1" d="M103.659,259.151l17.028.053-.036,12.045-17.032-.054Z" transform="translate(-37.989 -173.892)"/>
  <path class="cls-1" d="M69.6,259.043l17.028.054-.036,12.044-17.03-.056Z" transform="translate(-37.989 -173.892)"/>
  <path class="cls-1" d="M89.264,214.03l12.042.038-.051,17.03-12.044-.04Z" transform="translate(-37.989 -173.892)"/>
</svg>
