<svg id="Capa_1" data-name="Capa 1" xmlns="http://www.w3.org/2000/svg" width="156.101" height="546.066" viewBox="0 0 156.101 546.066">
  <defs>
    <style>
      .cls-1 {
        fill: #55586b;
      }
    </style>
  </defs>
  <title>trs-wire</title>
  <path class="cls-1" d="M180.68,343.064l.547,32.3a15.009,15.009,0,0,0,15.263,14.753L318.9,388.036a15.011,15.011,0,0,0,14.754-15.263l-.548-32.3Z" transform="translate(-177.556 83.53)"/>
  <path class="cls-1" d="M314.722,141.857l-122.41,2.078A15.012,15.012,0,0,0,177.558,159.2l2.612,153.847L332.6,310.458,329.986,156.61a15.011,15.011,0,0,0-15.264-14.753Z" transform="translate(-177.556 83.53)"/>
  <path class="cls-1" d="M203.17,420.029l.472,27.75a15.009,15.009,0,0,0,15.263,14.754l80.057-1.359a15.009,15.009,0,0,0,14.754-15.264l-.471-27.75Z" transform="translate(-177.556 83.53)"/>
  <path class="cls-1" d="M224.241,113.413l-1.493-87.937,60.033-1.019,1.493,87.937Z" transform="translate(-177.556 83.53)"/>
  <path class="cls-1" d="M282.472-5.624l11.882-31.634a10.006,10.006,0,0,0-2.413-10.714L258.063-80.718a10.006,10.006,0,0,0-14.15.24L211.166-46.6a10.007,10.007,0,0,0-2.048,10.79L222.067-4.6Z" transform="translate(-177.556 83.53)"/>
</svg>
